<svg width="60" height="60" viewBox="0 0 60 60" fill="none" xmlns="http://www.w3.org/2000/svg">
<g clip-path="url(#clip0_781_49595)">
<path d="M0 41C0 46.5117 4.4883 51 10 51H15C16.1016 51 17 50.1016 17 49C17 47.8984 16.1016 47 15 47H10C6.6914 47 4 44.3086 4 41V10C4 6.6914 6.6914 4 10 4H41C44.3086 4 47 6.6914 47 10V15C47 16.1016 47.8984 17 49 17C50.1016 17 51 16.1016 51 15V10C51 4.4883 46.5117 0 41 0H10C4.4883 0 0 4.4883 0 10V41Z" fill="black"/>
<path d="M55.6803 30.8984L29.8993 22.3086C29.2899 22.1094 28.6493 22 28.0009 22C25.8915 22 23.9697 23.0781 22.8603 24.8984C21.9501 26.3867 21.7705 28.289 22.3798 30.1093L30.9579 55.8473C31.7196 58.1285 33.7196 59.7457 36.036 59.9684C38.6376 60.2184 41.0946 58.7965 42.1454 56.4372L45.6766 48.5075L54.5868 57.4177C55.3251 58.156 56.6766 58.156 57.4149 57.4177C57.7938 57.0388 58.0048 56.5388 58.0048 56.0075C58.0048 55.4762 57.7938 54.9684 57.4149 54.5973L48.5047 45.6871L56.4344 42.1559C59.2039 40.9254 60.5946 37.9059 59.7547 34.9645C59.2157 33.0934 57.6961 31.5856 55.6766 30.9059L55.6803 30.8984ZM54.8092 38.4882L43.5082 43.5077L38.4887 54.8087C38.1684 55.5392 37.4575 56.0001 36.6684 56.0001H36.5668C35.7387 55.961 35.0277 55.422 34.766 54.629L26.0941 28.629C25.8559 27.9102 26.0355 27.1173 26.5746 26.5782C27.1137 26.0391 27.8949 25.8594 28.6254 26.0977L54.6254 34.7696C55.4145 35.0313 55.9457 35.7384 55.9848 36.5704C56.0239 37.3985 55.5629 38.1485 54.8051 38.4923L54.8092 38.4882Z" fill="black"/>
</g>
<defs>
<clipPath id="clip0_781_49595">
<rect width="60" height="60" fill="white"/>
</clipPath>
</defs>
</svg>
